{"title":"Futurama.S07E07.The.Six.Million.Dollar.Mon.720p.WEB-DL.DD5.1.H.2","uid":7489648,"size":595471994,"categoryP":"video","categoryS":"hd___tv_shows","magnet":"?xt=urn:btih:3be2bb9daac2d627bd103da4944c041efe3e1964&amp;dn=Futurama.S07E07.The.Six.Million.Dollar.Mon.720p.WEB-DL.DD5.1.H.2&amp;tr=udp%3A%2F%2Ftracker.openbittorrent.com%3A80&amp;tr=udp%3A%2F%2Fopen.demonii.com%3A1337&amp;tr=udp%3A%2F%2Ftracker.coppersurfer.tk%3A6969&amp;tr=udp%3A%2F%2Fexodus.desync.com%3A6969","seeders":1,"leechers":0,"uploader":"sceneline","files":4,"time":1343696227,"description":"- &lt;a href=&quot;\nhttp://www.Speed.Cd&quot; rel=&quot;nofollow&quot; target=&quot;_NEW&quot;&gt;\nhttp://www.Speed.Cd&lt;/a&gt;\n &lt;a href=&quot;\nhttp://www.Speed.Cd&quot; rel=&quot;nofollow&quot; target=&quot;_NEW&quot;&gt;\nhttp://www.Speed.Cd&lt;/a&gt;       the fast  and The Hottest Private Tracker on the net\n\n(((--Registration is Open!!--)))\n\nPlease Seed back to make the speed Faster!!!\n\nand don't forget to visit .......http://www.Speed.Cd  ......\n\n\n ............ NFO .............\n-General\nUnique ID                                : 225281149020810132119995323312945121044 (0xA97B92325523A2C799A341D3FCBE4714)\nComplete name                            : Futurama.S07E07.The.Six.Million.Dollar.Mon.720p.WEB-DL.DD5.1.H.264-CtrlHD.mkv\nFormat                                   : Matroska\nFormat version                           : Version 2\nFile size                                : 568 MiB\nDuration                                 : 21mn 37s\nOverall bit rate                         : 3 672 Kbps\nEncoded date                             : UTC 2012-07-28 15:53:53\nWriting application                      : mkvmerge v5.7.0 ('The Whirlwind') built on Jul  8 2012 20:08:51\nWriting library                          : libebml v1.2.3 + libmatroska v1.3.0\n\nVideo\nID                                       : 1\nFormat                                   : AVC\nFormat/Info                              : Advanced Video Codec\nFormat profile                           : &lt;a class=&quot;__cf_email__&quot; href=&quot;/cdn-cgi/l/email-protection&quot; data-cfemail=&quot;d098b9b7b8909ce3fee1&quot;&gt;[email&amp;#160;protected]&lt;/a&gt;&lt;script cf-hash='f9e31' type=&quot;text/javascript&quot;&gt;\n/* &lt;![CDATA[ */!function(){try{var t=&quot;currentScript&quot;in document?document.currentScript:function(){for(var t=document.getElementsByTagName(&quot;script&quot;),e=t.length;e--;)if(t[e].getAttribute(&quot;cf-hash&quot;))return t[e]}();if(t&amp;&amp;t.previousSibling){var e,r,n,i,c=t.previousSibling,a=c.getAttribute(&quot;data-cfemail&quot;);if(a){for(e=&quot;&quot;,r=parseInt(a.substr(0,2),16),n=2;a.length-n;n+=2)i=parseInt(a.substr(n,2),16)^r,e+=String.fromCharCode(i);e=document.createTextNode(e),c.parentNode.replaceChild(e,c)}}}catch(u){}}();/* ]]&gt; */&lt;/script&gt;\nFormat settings, CABAC                   : No\nFormat settings, ReFrames                : 2 frames\nCodec ID                                 : V_MPEG4/ISO/AVC\nDuration                                 : 21mn 37s\nBit rate                                 : 3 215 Kbps\nWidth                                    : 1 280 pixels\nHeight                                   : 720 pixels\nDisplay aspect ratio                     : 16:9\nFrame rate                               : 23.976 fps\nColor space                              : YUV\nChroma subsampling                       : 4:2:0\nBit depth                                : 8 bits\nScan type                                : Progressive\nBits/(Pixel*Frame)                       : 0.145\nStream size                              : 497 MiB (88%)\nLanguage                                 : English\nDefault                                  : Yes\nForced                                   : No\nColor primaries                          : BT.709-5, BT.1361, IEC 61966-2-4, SMPTE RP177\nTransfer characteristics                 : BT.709-5, BT.1361\nMatrix coefficients                      : BT.709-5, BT.1361, IEC 61966-2-4 709, SMPTE RP177\n\nAudio\nID                                       : 2\nFormat                                   : AC-3\nFormat/Info                              : Audio Coding 3\nMode extension                           : CM (complete main)\nFormat settings, Endianness              : Big\nCodec ID                                 : A_AC3\nDuration                                 : 21mn 37s\nBit rate mode                            : Constant\nBit rate                                 : 384 Kbps\nChannel(s)                               : 6 channels\nChannel positions                        : Front: L C R, Side: L R, LFE\nSampling rate                            : 48.0 KHz\nBit depth                                : 16 bits\nCompression mode                         : Lossy\nStream size                              : 59.4 MiB (10%)\nLanguage                                 : English\nDefault                                  : Yes\nForced                                   : No","torrent":{"xt":"urn:btih:3be2bb9daac2d627bd103da4944c041efe3e1964","amp;dn":"Futurama.S07E07.The.Six.Million.Dollar.Mon.720p.WEB-DL.DD5.1.H.2","amp;tr":["udp%3A%2F%2Ftracker.openbittorrent.com%3A80","udp%3A%2F%2Fopen.demonii.com%3A1337","udp%3A%2F%2Ftracker.coppersurfer.tk%3A6969","udp%3A%2F%2Fexodus.desync.com%3A6969"],"infoHash":"3be2bb9daac2d627bd103da4944c041efe3e1964","infoHashBuffer":{"type":"Buffer","data":[59,226,187,157,170,194,214,39,189,16,61,164,148,76,4,30,254,62,25,100]},"announce":[],"urlList":[]}}